<?xml version="1.0" encoding="iso-8859-1"?>
<!-- Generator: Adobe Illustrator 16.0.0, SVG Export Plug-In . SVG Version: 6.00 Build 0)  -->
<svg version="1.1" id="Capa_1" xmlns="http://www.w3.org/2000/svg" xmlns:xlink="http://www.w3.org/1999/xlink" x="0px" y="0px"
	 width="612px" height="612px" viewBox="0 0 612 612" style="enable-background:new 0 0 612 612;" xml:space="preserve"  fill="#4254f5">
<g>
	<path d="M257.254,316.536c84.086,0,152.252-68.166,152.252-152.252S341.341,12.031,257.254,12.031
		c-84.087,0-152.253,68.166-152.253,152.252S173.167,316.536,257.254,316.536z M330.946,224.34
		c-6.927,22.9-36.596,40.115-72.154,40.115c-35.559,0-65.228-17.215-72.153-40.115H330.946z M608.234,481.521L468.934,597.613
		c-4.052,3.377-10.418,3.088-14.147-0.642l-69.355-69.364c-4.083-4.084-4.083-10.766,0.001-14.85l14.847-14.847
		c4.083-4.083,10.766-4.084,14.849-0.001l49.024,49.016L581.35,449.26c4.437-3.696,11.091-3.092,14.788,1.345l13.441,16.127
		C613.275,471.168,612.671,477.823,608.234,481.521z M369.096,543.941l26.415,26.419c-36.051,5.076-81.493,8.68-138.256,8.68
		c-146.803,0-218.644-23.987-244.982-35.706C5.477,540.31,0,531.665,0,524.227v-50.188c0-75.205,57.26-137.596,130.325-145.953
		c2.22-0.254,5.513,0.696,7.322,2.007c33.688,24.389,74.932,38.944,119.607,38.944s85.919-14.556,119.607-38.944
		c1.81-1.311,5.102-2.261,7.322-2.007c73.065,8.356,130.326,70.747,130.326,145.953v0.849l-48.942,40.782l-34.105-34.094
		c-6.348-6.348-14.787-9.845-23.759-9.845s-17.411,3.497-23.759,9.845l-14.848,14.848
		C355.99,509.528,355.99,530.837,369.096,543.941z"/>
</g>
</svg>
