<svg width="75" height="68" viewBox="0 0 75 68" fill="none" xmlns="http://www.w3.org/2000/svg">
<path d="M5.79746 30.7397H9.31996C9.92789 30.7397 10.4207 30.2929 10.4207 29.7417C10.4207 29.1905 9.92789 28.7437 9.31996 28.7437H5.79746C5.18953 28.7437 4.69667 29.1905 4.69667 29.7417C4.69667 30.2929 5.18953 30.7397 5.79746 30.7397Z" fill="#383A3A"/>
<path d="M5.79746 22.2231H30.455C31.0629 22.2231 31.5558 21.7763 31.5558 21.2251C31.5558 20.6739 31.0629 20.2271 30.455 20.2271H5.79746C5.18953 20.2271 4.69667 20.6739 4.69667 21.2251C4.69667 21.7763 5.18953 22.2231 5.79746 22.2231Z" fill="#383A3A"/>
<path d="M35.1517 22.2231H39.8483C40.4563 22.2231 40.9491 21.7763 40.9491 21.2251C40.9491 20.6739 40.4563 20.2271 39.8483 20.2271H35.1517C34.5437 20.2271 34.0509 20.6739 34.0509 21.2251C34.0509 21.7763 34.5437 22.2231 35.1517 22.2231Z" fill="#383A3A"/>
<path d="M55.1125 22.2231H69.2025C69.8105 22.2231 70.3033 21.7763 70.3033 21.2251C70.3033 20.6739 69.8105 20.2271 69.2025 20.2271H55.1125C54.5046 20.2271 54.0117 20.6739 54.0117 21.2251C54.0117 21.7763 54.5046 22.2231 55.1125 22.2231Z" fill="#383A3A"/>
<path d="M55.1125 28.7437C54.8234 28.7437 54.5387 28.8501 54.3346 29.0364C54.1292 29.2214 54.0117 29.4795 54.0117 29.7417C54.0117 30.0038 54.1292 30.262 54.3346 30.447C54.5387 30.6333 54.8234 30.7397 55.1125 30.7397C55.4017 30.7397 55.6864 30.6333 55.8904 30.447C56.0959 30.262 56.2133 30.0038 56.2133 29.7417C56.2133 29.4795 56.0959 29.2214 55.8904 29.0364C55.6864 28.8501 55.4017 28.7437 55.1125 28.7437Z" fill="#383A3A"/>
<path d="M55.8904 37.553C55.6864 37.3667 55.4017 37.2603 55.1125 37.2603C54.8234 37.2603 54.5387 37.3667 54.3346 37.553C54.1292 37.738 54.0117 37.9961 54.0117 38.2583C54.0117 38.5204 54.1292 38.7786 54.3346 38.9636C54.5387 39.1499 54.8234 39.2563 55.1125 39.2563C55.4017 39.2563 55.6864 39.1499 55.8904 38.9636C56.0959 38.7786 56.2133 38.5204 56.2133 38.2583C56.2133 37.9961 56.0959 37.738 55.8904 37.553Z" fill="#383A3A"/>
<path d="M55.1125 45.7771C54.8234 45.7771 54.5387 45.8836 54.3346 46.0699C54.1292 46.2548 54.0117 46.513 54.0117 46.7751C54.0117 47.0373 54.1292 47.2955 54.3346 47.4804C54.5387 47.6667 54.8234 47.7732 55.1125 47.7732C55.4017 47.7732 55.6864 47.6667 55.8904 47.4804C56.0959 47.2955 56.2133 47.0373 56.2133 46.7751C56.2133 46.513 56.0959 46.2548 55.8904 46.0699C55.6864 45.8836 55.4017 45.7771 55.1125 45.7771Z" fill="#383A3A"/>
<path d="M59.8092 45.7771C59.5186 45.7771 59.2353 45.8836 59.0313 46.0699C58.8258 46.2548 58.7084 46.513 58.7084 46.7751C58.7084 47.0373 58.8258 47.2955 59.0313 47.4804C59.2353 47.6667 59.5186 47.7732 59.8092 47.7732C60.0983 47.7732 60.3831 47.6667 60.5871 47.4804C60.7926 47.2955 60.91 47.0373 60.91 46.7751C60.91 46.513 60.7926 46.2548 60.5871 46.0699C60.3831 45.8836 60.0998 45.7771 59.8092 45.7771Z" fill="#383A3A"/>
<path d="M55.1125 54.2937C54.8234 54.2937 54.5387 54.4002 54.3346 54.5865C54.1292 54.7714 54.0117 55.0296 54.0117 55.2918C54.0117 55.5539 54.1292 55.8121 54.3346 55.997C54.5387 56.1833 54.8234 56.2898 55.1125 56.2898C55.4017 56.2898 55.6864 56.1833 55.8904 55.997C56.0959 55.8121 56.2133 55.5539 56.2133 55.2918C56.2133 55.0296 56.0959 54.7714 55.8904 54.5865C55.6864 54.4002 55.4017 54.2937 55.1125 54.2937Z" fill="#383A3A"/>
<path d="M59.8092 54.2937C59.5201 54.2937 59.2353 54.4002 59.0313 54.5865C58.8258 54.7714 58.7084 55.0296 58.7084 55.2918C58.7084 55.5539 58.8258 55.8121 59.0313 55.997C59.2353 56.1833 59.5201 56.2898 59.8092 56.2898C60.0983 56.2898 60.3831 56.1833 60.5871 55.997C60.7926 55.8121 60.91 55.5539 60.91 55.2918C60.91 55.0296 60.7926 54.7714 60.5871 54.5865C60.3831 54.4002 60.0983 54.2937 59.8092 54.2937Z" fill="#383A3A"/>
<path d="M65.2838 46.0699C65.0797 45.8836 64.795 45.7771 64.5059 45.7771C64.2167 45.7771 63.932 45.8836 63.728 46.0699C63.5225 46.2548 63.4051 46.5117 63.4051 46.7751C63.4051 47.0386 63.5225 47.2955 63.728 47.4804C63.932 47.6667 64.2167 47.7732 64.5059 47.7732C64.795 47.7732 65.0797 47.6667 65.2838 47.4804C65.4892 47.2955 65.6067 47.0373 65.6067 46.7751C65.6067 46.513 65.4892 46.2548 65.2838 46.0699Z" fill="#383A3A"/>
<path d="M60.5871 29.0364C60.3831 28.8501 60.0998 28.7437 59.8092 28.7437C59.5186 28.7437 59.2353 28.8501 59.0313 29.0364C58.8258 29.2214 58.7084 29.4795 58.7084 29.7417C58.7084 30.0038 58.8258 30.262 59.0313 30.447C59.2353 30.6333 59.5201 30.7397 59.8092 30.7397C60.0983 30.7397 60.3831 30.6333 60.5871 30.447C60.7926 30.262 60.91 30.0038 60.91 29.7417C60.91 29.4795 60.7926 29.2214 60.5871 29.0364Z" fill="#383A3A"/>
<path d="M9.31996 54.2937H5.79746C5.18953 54.2937 4.69667 54.7406 4.69667 55.2918C4.69667 55.8429 5.18953 56.2898 5.79746 56.2898H9.31996C9.92789 56.2898 10.4207 55.8429 10.4207 55.2918C10.4207 54.7406 9.92789 54.2937 9.31996 54.2937Z" fill="#383A3A"/>
<path d="M21.0616 13.7065H53.9384C54.5463 13.7065 55.0391 13.2597 55.0391 12.7085C55.0391 12.1573 54.5463 11.7104 53.9384 11.7104H21.0616C20.4537 11.7104 19.9609 12.1573 19.9609 12.7085C19.9609 13.2597 20.4537 13.7065 21.0616 13.7065Z" fill="#383A3A"/>
<path d="M5.79746 39.2563H9.31996C9.92789 39.2563 10.4207 38.8095 10.4207 38.2583C10.4207 37.7071 9.92789 37.2603 9.31996 37.2603H5.79746C5.18953 37.2603 4.69667 37.7071 4.69667 38.2583C4.69667 38.8095 5.18953 39.2563 5.79746 39.2563Z" fill="#383A3A"/>
<path d="M9.31996 45.7771H5.79746C5.18953 45.7771 4.69667 46.224 4.69667 46.7751C4.69667 47.3263 5.18953 47.7732 5.79746 47.7732H9.31996C9.92789 47.7732 10.4207 47.3263 10.4207 46.7751C10.4207 46.224 9.92789 45.7771 9.31996 45.7771Z" fill="#383A3A"/>
<path d="M31.6292 45.7771H29.2808C28.6729 45.7771 28.18 46.224 28.18 46.7751C28.18 47.3263 28.6729 47.7732 29.2808 47.7732H31.6292C32.2371 47.7732 32.7299 47.3263 32.7299 46.7751C32.7299 46.224 32.2371 45.7771 31.6292 45.7771Z" fill="#383A3A"/>
<path d="M29.2808 56.2898H31.6292C32.2371 56.2898 32.7299 55.8429 32.7299 55.2918C32.7299 54.7406 32.2371 54.2937 31.6292 54.2937H29.2808C28.6729 54.2937 28.18 54.7406 28.18 55.2918C28.18 55.8429 28.6729 56.2898 29.2808 56.2898Z" fill="#383A3A"/>
<path d="M31.6292 37.2603H29.2808C28.6729 37.2603 28.18 37.7071 28.18 38.2583C28.18 38.8095 28.6729 39.2563 29.2808 39.2563H31.6292C32.2371 39.2563 32.7299 38.8095 32.7299 38.2583C32.7299 37.7071 32.2371 37.2603 31.6292 37.2603Z" fill="#383A3A"/>
<path d="M29.2808 30.7397H31.6292C32.2371 30.7397 32.7299 30.2929 32.7299 29.7417C32.7299 29.1905 32.2371 28.7437 31.6292 28.7437H29.2808C28.6729 28.7437 28.18 29.1905 28.18 29.7417C28.18 30.2929 28.6729 30.7397 29.2808 30.7397Z" fill="#383A3A"/>
<path d="M36.3258 30.7397H41.0225C41.6304 30.7397 42.1233 30.2929 42.1233 29.7417C42.1233 29.1905 41.6304 28.7437 41.0225 28.7437H36.3258C35.7179 28.7437 35.2251 29.1905 35.2251 29.7417C35.2251 30.2929 35.7179 30.7397 36.3258 30.7397Z" fill="#383A3A"/>
<path d="M44.545 37.2603H36.3258C35.7179 37.2603 35.2251 37.7071 35.2251 38.2583C35.2251 38.8095 35.7179 39.2563 36.3258 39.2563H44.545C45.1529 39.2563 45.6458 38.8095 45.6458 38.2583C45.6458 37.7071 45.1529 37.2603 44.545 37.2603Z" fill="#383A3A"/>
<path d="M38.6742 45.7771H36.3258C35.7179 45.7771 35.2251 46.224 35.2251 46.7751C35.2251 47.3263 35.7179 47.7732 36.3258 47.7732H38.6742C39.2821 47.7732 39.775 47.3263 39.775 46.7751C39.775 46.224 39.2821 45.7771 38.6742 45.7771Z" fill="#383A3A"/>
<path d="M36.3258 56.2898H41.0225C41.6304 56.2898 42.1233 55.8429 42.1233 55.2918C42.1233 54.7406 41.6304 54.2937 41.0225 54.2937H36.3258C35.7179 54.2937 35.2251 54.7406 35.2251 55.2918C35.2251 55.8429 35.7179 56.2898 36.3258 56.2898Z" fill="#383A3A"/>
<path d="M69.2025 7.45215H5.79746C2.60078 7.45215 0 9.81019 0 12.7085V55.2917C0 58.19 2.60078 60.548 5.79746 60.548H69.2025C72.3992 60.548 75 58.19 75 55.2917V12.7085C75 9.81019 72.3992 7.45215 69.2025 7.45215ZM25.6849 50.0353V43.5148H49.3151V50.0353H25.6849ZM49.3151 52.0314V58.5519H25.6849V52.0314H49.3151ZM72.7984 17.9649V24.4854H51.5166V17.9649H72.7984ZM49.3151 26.4815V33.002H25.6849V26.4815H49.3151ZM23.4834 33.002H2.20157V26.4815H23.4834V33.002ZM23.4834 34.9981V41.5187H2.20157V34.9981H23.4834ZM25.6849 34.9981H49.3151V41.5187H25.6849V34.9981ZM51.5166 34.9981H72.7984V41.5187H51.5166V34.9981ZM51.5166 33.002V26.4815H72.7984V33.002H51.5166ZM49.3151 24.4854H2.20157V17.9649H49.3151V24.4854ZM2.20157 43.5148H23.4834V50.0353H2.20157V43.5148ZM51.5166 43.5148H72.7984V50.0353H51.5166V43.5148ZM5.79746 9.44823H69.2025C71.1853 9.44823 72.7984 10.9108 72.7984 12.7085V15.9688H2.20157V12.7085C2.20157 10.9108 3.81473 9.44823 5.79746 9.44823ZM2.20157 55.2917V52.0314H23.4834V58.5519H5.79746C3.81473 58.5519 2.20157 57.0893 2.20157 55.2917ZM69.2025 58.5519H51.5166V52.0314H72.7984V55.2917C72.7984 57.0893 71.1853 58.5519 69.2025 58.5519Z" fill="#383A3A"/>
</svg>
