<svg width="63" height="63" viewBox="0 0 63 63" fill="none" xmlns="http://www.w3.org/2000/svg">
<g clip-path="url(#clip0)">
<path d="M31.5 11.48C29.7748 11.48 28.1143 11.999 26.6981 12.9809C26.2795 13.2712 26.1737 13.8484 26.4617 14.2702C26.7499 14.692 27.3228 14.7986 27.7414 14.5084C28.8493 13.7402 30.149 13.3342 31.5 13.3342C35.1612 13.3342 38.1396 16.335 38.1396 20.0236C38.1396 23.7122 35.1612 26.7132 31.5 26.7132C27.8389 26.7132 24.8604 23.7122 24.8604 20.0236C24.8604 18.9355 25.1112 17.8982 25.6057 16.9407C25.8402 16.4864 25.665 15.9266 25.2142 15.6904C24.7632 15.4543 24.2079 15.6306 23.9732 16.0849C23.3498 17.2922 23.0201 18.6542 23.0201 20.0236C23.0202 24.7347 26.8242 28.5674 31.5 28.5674C36.1758 28.5674 39.9798 24.7347 39.9798 20.0236C39.9798 15.3126 36.1758 11.48 31.5 11.48Z" fill="#808590"/>
<path d="M62.9298 61.7167L53.8485 39.7326C53.7057 39.3869 53.3707 39.1618 52.9991 39.1618H43.9493C45.7095 36.7626 47.1746 34.3729 48.3189 32.0265C50.3467 27.8683 51.3747 23.83 51.3747 20.0237C51.3746 8.98254 42.4591 0 31.5004 0C20.5418 0 11.6263 8.98254 11.6263 20.0235C11.6263 23.8299 12.6543 27.8683 14.6822 32.0264C15.8262 34.3728 17.2914 36.7626 19.0517 39.1616H10.0019C9.63035 39.1616 9.29517 39.3869 9.15255 39.7325L2.96428 54.7129C2.76901 55.1857 2.99099 55.7283 3.46016 55.9249C3.57583 55.9734 3.69543 55.9964 3.81331 55.9964C4.17383 55.9964 4.51603 55.7816 4.66307 55.4254L5.54605 53.2878H11.8099L8.5639 61.1458H2.3002L3.24114 58.8678C3.43641 58.3951 3.21444 57.8525 2.74526 57.6558C2.27584 57.4588 1.73738 57.6828 1.54223 58.1554L0.0712068 61.7167C-0.0470412 62.0028 -0.0155412 62.3296 0.155248 62.5873C0.325791 62.8451 0.612982 63 0.920599 63H62.0803C62.3878 63 62.6751 62.8451 62.8458 62.5873C63.0164 62.3296 63.048 62.0028 62.9298 61.7167ZM13.4666 20.0235C13.4666 10.0048 21.5565 1.85407 31.5004 1.85407C41.4444 1.85407 49.5343 10.0049 49.5343 20.0235C49.5343 24.2247 48.0854 30.9382 41.3831 39.4934C41.3763 39.5014 41.3703 39.5099 41.3639 39.5181C41.0216 39.9546 40.666 40.3957 40.2957 40.8417C36.6127 45.279 32.8856 48.5192 31.5003 49.6705C30.1191 48.5232 26.4096 45.2992 22.7292 40.8704C22.3497 40.4138 21.9857 39.9623 21.6354 39.5156C21.6297 39.5085 21.6245 39.5011 21.6186 39.4941C14.9164 30.9395 13.4666 24.2263 13.4666 20.0235ZM10.6156 41.0158H16.8795L14.5948 46.5465H8.33097L10.6156 41.0158ZM15.9962 61.1459L21.7475 47.2234L38.1145 61.1459H15.9962ZM40.9671 61.1459L21.9745 44.9899C21.7503 44.799 21.4491 44.7275 21.1644 44.7972C20.8794 44.8667 20.6441 45.0691 20.5316 45.3419L14.0031 61.1458H10.5573L14.039 52.7168C14.1572 52.4308 14.1257 52.1041 13.9549 51.8463C13.7844 51.5885 13.4971 51.4336 13.1895 51.4336H6.31227L7.56513 48.4005H15.2086C15.5802 48.4005 15.9153 48.1752 16.0579 47.8297L18.8728 41.0157H20.4697C20.7469 41.3639 21.0287 41.7123 21.3179 42.0605C26.0657 47.7736 30.7406 51.4415 30.9374 51.5949C31.1032 51.7242 31.3018 51.7887 31.5004 51.7887C31.699 51.7887 31.8978 51.7241 32.0635 51.5949C32.1717 51.5106 33.6332 50.3633 35.7147 48.4006H46.1344C46.6426 48.4006 47.0545 47.9856 47.0545 47.4736C47.0545 46.9616 46.6426 46.5465 46.1344 46.5465H37.6111C38.8868 45.2542 40.2812 43.7473 41.6831 42.0606C41.9723 41.7124 42.2542 41.3642 42.5313 41.0158H52.3853L54.6699 46.5465H49.8149C49.3067 46.5465 48.8947 46.9616 48.8947 47.4736C48.8947 47.9856 49.3065 48.4006 49.8149 48.4006H55.4358L56.6886 51.4337H37.7308C37.3468 51.4337 37.0032 51.6739 36.8687 52.0364C36.7345 52.3989 36.8376 52.8073 37.1276 53.0609L46.3725 61.1459H40.9671ZM49.1799 61.1459L40.1946 53.2879H57.4547L60.7008 61.1459H49.1799Z" fill="#808590"/>
</g>
<defs>
<clipPath id="clip0">
<rect width="63" height="63" fill="white"/>
</clipPath>
</defs>
</svg>
