<svg width="76" height="76" viewBox="0 0 76 76" fill="none" xmlns="http://www.w3.org/2000/svg">
<path d="M7.34477 44.0112H28.0506C28.6655 44.0112 29.164 43.5128 29.164 42.8978C29.164 42.2828 28.6655 41.7844 28.0506 41.7844H7.34477C6.72988 41.7844 6.23138 42.2828 6.23138 42.8978C6.23138 43.5128 6.72988 44.0112 7.34477 44.0112Z" fill="#383A3A"/>
<path d="M7.34477 48.9382H28.0506C28.6655 48.9382 29.164 48.4398 29.164 47.8248C29.164 47.2098 28.6655 46.7114 28.0506 46.7114H7.34477C6.72988 46.7114 6.23138 47.2098 6.23138 47.8248C6.23138 48.4398 6.72988 48.9382 7.34477 48.9382Z" fill="#383A3A"/>
<path d="M7.34477 28.9532C6.72988 28.9532 6.23138 29.4515 6.23138 30.0666V35.8281C6.23138 37.57 7.6485 38.9873 9.39057 38.9873H26.0048C27.7467 38.9873 29.164 37.57 29.164 35.8281V19.6431C29.164 17.9011 27.7467 16.4839 26.0048 16.4839H9.39057C7.64865 16.4839 6.23138 17.9011 6.23138 19.6431V24.8616C6.23138 25.4766 6.72988 25.975 7.34477 25.975C7.95965 25.975 8.45815 25.4766 8.45815 24.8616V19.6431C8.45815 19.1288 8.87634 18.7107 9.39057 18.7107H26.0048C26.5189 18.7107 26.9372 19.1288 26.9372 19.6431V35.8281C26.9372 36.3423 26.5189 36.7605 26.0048 36.7605H25.2356V35.7136C25.2356 33.1892 23.9897 30.8832 21.9647 29.4965C22.5493 28.6475 22.8687 27.6355 22.8687 26.5702C22.8687 23.7189 20.549 21.3992 17.6977 21.3992C14.8464 21.3992 12.5268 23.7189 12.5268 26.5702C12.5268 27.6355 12.8461 28.6474 13.4308 29.4965C11.4056 30.8832 10.1598 33.1892 10.1598 35.7136V36.7605H9.39072C8.87663 36.7605 8.4583 36.3423 8.4583 35.8281V30.0666C8.45815 29.4517 7.95965 28.9532 7.34477 28.9532ZM17.6977 23.6262C19.3212 23.6262 20.642 24.9469 20.642 26.5704C20.642 27.4874 20.226 28.3353 19.5008 28.8981C19.497 28.9011 19.4933 28.904 19.4894 28.9069C18.9719 29.3046 18.3524 29.5146 17.6977 29.5146C17.0434 29.5146 16.4245 29.3049 15.9071 28.9078C15.9028 28.9043 15.8985 28.9011 15.8942 28.8977C15.1692 28.3347 14.7535 27.4869 14.7535 26.5702C14.7534 24.9469 16.0743 23.6262 17.6977 23.6262ZM12.3865 35.7136C12.3865 33.7584 13.4471 31.9892 15.1318 31.0615C15.9092 31.5082 16.784 31.7414 17.6977 31.7414C18.6115 31.7414 19.4863 31.508 20.2637 31.0615C21.9483 31.9892 23.009 33.7584 23.009 35.7136V36.7605H12.3865V35.7136Z" fill="#383A3A"/>
<path d="M71.0784 18.5031V14.5589C71.0784 12.1844 69.1466 10.2524 66.7721 10.2524H4.30627C1.93179 10.2524 0 12.1842 0 14.5589V53.8865C0 56.261 1.93179 58.1928 4.30627 58.1928H21.64C22.2549 58.1928 22.7534 57.6945 22.7534 57.0794C22.7534 56.4644 22.2549 55.966 21.64 55.966H4.30627C3.15963 55.966 2.22677 55.0332 2.22677 53.8865V14.5589C2.22677 13.4121 3.15963 12.4792 4.30627 12.4792H66.7721C67.9188 12.4792 68.8516 13.4121 68.8516 14.5589V16.852C63.1383 13.3949 55.6205 14.1521 50.7119 19.0606C47.1625 22.6101 45.6832 27.661 46.6701 32.5042C45.8298 32.5404 45.0004 32.8785 44.3603 33.5184V33.5186C43.0226 34.8566 43.0038 37.0216 44.3038 38.3824L25.9525 56.7337C25.3413 57.3448 25.0024 58.1576 24.9981 59.0221L24.9803 62.6735C24.972 64.3742 26.347 65.7475 28.039 65.7475H28.0543L31.7057 65.7295C32.57 65.7254 33.3828 65.3863 33.9941 64.7751L34.5854 64.184C35.1274 63.642 35.4207 62.8917 35.3903 62.1259L35.3066 60.0188C35.294 59.7042 35.5563 59.4496 35.871 59.4699L37.8341 59.6023C38.6279 59.6549 39.4059 59.3639 39.9682 58.8013C40.4216 58.3239 40.7201 58.1221 40.9998 57.6272C41.252 57.1807 41.3747 56.6741 41.3543 56.1621L41.2706 54.055C41.258 53.7405 41.5216 53.4845 41.835 53.5062L43.7981 53.6386C44.5914 53.6897 45.3698 53.4002 45.9323 52.8376L46.5228 52.247C47.0648 51.705 47.3581 50.9548 47.3277 50.1889L47.244 48.0818C47.2314 47.7657 47.4969 47.5109 47.8084 47.533L49.7714 47.6654C50.5656 47.7182 51.3432 47.4268 51.9055 46.8643L52.36 46.4098C53.7087 47.4896 55.7098 47.4308 56.9913 46.1494C57.5726 45.5679 57.923 44.8174 57.9961 44.0084C61.6872 44.8157 65.5983 44.1808 68.8519 42.2212V53.8868C68.8519 55.0335 67.9191 55.9663 66.7724 55.9663H45.1128C44.4979 55.9663 43.9994 56.4647 43.9994 57.0797C43.9994 57.6948 44.4979 58.1931 45.1128 58.1931H66.7721C69.1466 58.1931 71.0784 56.2613 71.0784 53.8868V40.5736C77.6396 34.6829 77.6413 24.3946 71.0784 18.5031ZM49.9207 45.4432L47.9579 45.3108C46.3196 45.2041 44.9535 46.5345 45.0185 48.17L45.1023 50.2771C45.1082 50.4242 45.0518 50.5684 44.9477 50.6723L44.3572 51.2628C44.2493 51.3709 44.1014 51.427 43.9475 51.4165L41.9844 51.284C40.3453 51.1755 38.9803 52.5108 39.0452 54.1432L39.1289 56.2503C39.1348 56.3998 39.0766 56.5434 38.9744 56.6455L38.3932 57.2265C38.2852 57.3346 38.1369 57.3912 37.9834 57.3802L36.0203 57.2478C34.3807 57.141 33.0161 58.4725 33.0811 60.1069L33.1649 62.2141C33.1708 62.3612 33.1144 62.5053 33.0103 62.6092L32.4192 63.2002C32.2255 63.3938 31.9682 63.5011 31.6943 63.5025L28.043 63.5204H28.0389C27.5788 63.5204 27.2044 63.1472 27.2066 62.684L27.2245 59.0326C27.2258 58.7589 27.3331 58.5014 27.5267 58.3078L45.8772 39.9574L50.7695 44.8497L50.3301 45.2891C50.2225 45.3975 50.0732 45.4547 49.9207 45.4432ZM55.4164 44.5745C54.9275 45.0633 54.1323 45.0633 53.6434 44.5745L45.9348 36.8657C45.4461 36.377 45.4461 35.5819 45.9348 35.0929C46.4233 34.6044 47.2184 34.6044 47.7073 35.0928C47.7097 35.0951 47.712 35.0974 47.7144 35.0997L55.4164 42.8018C55.9052 43.2905 55.9052 44.0858 55.4164 44.5745ZM57.2319 41.4938C57.0569 41.2792 49.2375 33.4745 49.2222 33.46C47.7598 28.9815 48.9489 23.9726 52.2864 20.6353C56.9257 15.996 64.2983 15.7269 69.2511 19.8657C75.2754 24.8963 75.2848 34.1593 69.2584 39.2046C69.2554 39.2071 69.2524 39.2095 69.2495 39.212C65.93 41.9846 61.344 42.8508 57.2319 41.4938Z" fill="#383A3A"/>
<path d="M68.1924 22.5352C66.3678 20.7106 63.3941 20.7035 61.5617 22.5352C59.6731 24.4236 59.7311 27.5203 61.7364 29.3319C63.5833 30.9997 66.4297 30.9286 68.1924 29.1659C68.1924 29.1659 68.1924 29.1659 68.1924 29.1658C70.0246 27.3337 70.0249 24.3675 68.1924 22.5352ZM63.1824 27.6364C63.1821 27.6361 63.1819 27.636 63.1817 27.6357C63.1755 27.6297 63.1692 27.6237 63.163 27.6176C63.1615 27.6161 63.1602 27.6148 63.1587 27.6134C63.1513 27.6061 63.1438 27.5987 63.1364 27.5914C62.1745 26.6292 62.1742 25.0722 63.1364 24.11C64.096 23.1502 65.6582 23.1499 66.618 24.11C67.5802 25.0721 67.5802 26.6292 66.618 27.5913C65.6732 28.5357 64.1456 28.551 63.1824 27.6364Z" fill="#383A3A"/>
</svg>
