<svg id="Line" height="512" viewBox="0 0 512 512" width="512" xmlns="http://www.w3.org/2000/svg"><g><path d="m496 264v-182a18.021 18.021 0 0 0 -18-18h-86v-20a28.032 28.032 0 0 0 -28-28h-216a28.032 28.032 0 0 0 -28 28v20h-24v16h382a2 2 0 0 1 2 2v46h-448v-46a2 2 0 0 1 2-2h46v-16h-46a18.021 18.021 0 0 0 -18 18v316a18.021 18.021 0 0 0 18 18h86v52a28.032 28.032 0 0 0 28 28h216a28.032 28.032 0 0 0 28-28v-52h86a18.021 18.021 0 0 0 18-18v-118h-16v118a2 2 0 0 1 -2 2h-444a2 2 0 0 1 -2-2v-254h448v120zm-360-220a12.013 12.013 0 0 1 12-12h216a12.013 12.013 0 0 1 12 12v20h-240zm228 436h-216a12.013 12.013 0 0 1 -12-12v-12h240v12a12.013 12.013 0 0 1 -12 12zm12-40h-240v-24h240z"/><path d="m316 384h104a28.032 28.032 0 0 0 28-28v-8a28.032 28.032 0 0 0 -28-28h-104a28.032 28.032 0 0 0 -28 28v8a28.032 28.032 0 0 0 28 28zm-12-36a12.013 12.013 0 0 1 12-12h104a12.013 12.013 0 0 1 12 12v8a12.013 12.013 0 0 1 -12 12h-104a12.013 12.013 0 0 1 -12-12z"/><path d="m56 160a8 8 0 0 0 -8 8v208a8 8 0 0 0 8 8h176a8 8 0 0 0 8-8v-208a8 8 0 0 0 -8-8zm168 16v141.824a37.642 37.642 0 0 0 -8.657-4.615l-40.961-15.36-4.511-13.533a28.018 28.018 0 0 0 14.129-24.316v-40a28.032 28.032 0 0 0 -28-28h-24a28.032 28.032 0 0 0 -28 28v40a28.018 28.018 0 0 0 14.129 24.316l-4.511 13.533-40.961 15.36a37.642 37.642 0 0 0 -8.657 4.615v-141.824zm-56 84a12.013 12.013 0 0 1 -12 12h-24a12.013 12.013 0 0 1 -12-12v-40a12.013 12.013 0 0 1 12-12h24a12.013 12.013 0 0 1 12 12zm-34.234 28h20.468l4.851 14.553-15.085 20.114-15.085-20.114zm-69.766 60.79a22.1 22.1 0 0 1 14.275-20.6l38.925-14.59 20.4 27.2a8 8 0 0 0 12.8 0l20.4-27.2 38.922 14.6a22.1 22.1 0 0 1 14.278 20.59v19.21h-160z"/><path d="m288 224a32 32 0 1 0 -32-32 32.036 32.036 0 0 0 32 32zm0-48a16 16 0 1 1 -16 16 16.019 16.019 0 0 1 16-16z"/><path d="m432 168.531h32v16h-32z"/><path d="m336 168h80v16h-80z"/><path d="m400 200h64v16h-64z"/><path d="m336 200h48v16h-48z"/><path d="m288 304a32 32 0 1 0 -32-32 32.036 32.036 0 0 0 32 32zm0-48a16 16 0 1 1 -16 16 16.019 16.019 0 0 1 16-16z"/><path d="m432 248h32v16h-32z"/><path d="m336 248h80v16h-80z"/><path d="m400 280h64v16h-64z"/><path d="m336 280h48v16h-48z"/><path d="m48 96h16v16h-16z"/><path d="m80 96h16v16h-16z"/><path d="m112 96h16v16h-16z"/><path d="m448 96h16v16h-16z"/></g></svg>